<?xml version="1.0" encoding="UTF-8"?>
<svg xmlns="http://www.w3.org/2000/svg" width="61" height="61" viewBox="0 0 61 61">
  <g id="Group_18934" data-name="Group 18934" transform="translate(-312 -2553)">
    <g id="Group_18933" data-name="Group 18933">
      <path id="Path_12153" data-name="Path 12153" d="M10,0H51A10,10,0,0,1,61,10V51A10,10,0,0,1,51,61H10A10,10,0,0,1,0,51V10A10,10,0,0,1,10,0Z" transform="translate(312 2553)" fill="#fff"></path>
    </g>
    <path id="review_2_" data-name="review (2)" d="M40.179,41.449h9.956a.649.649,0,0,0,.649-.649v-.189l2.629.914a.649.649,0,0,0,.213.036h.006l15.073-.144a.65.65,0,0,0,.244-.05,3.826,3.826,0,0,0,2.295-4.138,2.921,2.921,0,0,0,1.412-1.306,4.209,4.209,0,0,0,.116-3.1,3.233,3.233,0,0,0,.816-4.732c.987-1.361,1.3-2.568.937-3.594-.454-1.274-1.873-2.142-4.338-2.653a.644.644,0,0,0-.112-.013c-1.928-.06-4.952.108-7.788.291a34.364,34.364,0,0,0,.213-7.769c0-.011,0-.023,0-.034-.179-1.494-1.075-3.327-4.327-3.573a1.331,1.331,0,0,0-1.431,1.368c.2,6.47-1.69,10.7-5.764,12.928l-.193.076v-.147a.649.649,0,0,0-.649-.649H40.179a.649.649,0,0,0-.649.649V40.8A.649.649,0,0,0,40.179,41.449ZM51.491,26.24a.654.654,0,0,0,.071-.033c4.506-2.446,6.685-7.2,6.476-14.127a.1.1,0,0,0,0-.014l.01-.011.01-.009h.015c2.557.193,3.015,1.466,3.133,2.415a30.165,30.165,0,0,1-.35,8.227.649.649,0,0,0,.676.79c3.005-.2,6.38-.4,8.447-.345,1.9.4,3.044,1.023,3.323,1.8.3.848-.414,1.986-1.069,2.791a.649.649,0,0,0,.079.9,1.937,1.937,0,0,1-.556,3.266.649.649,0,0,0-.378.81,3.5,3.5,0,0,1,.125,2.621,1.87,1.87,0,0,1-1.214.879.649.649,0,0,0-.428.831,2.522,2.522,0,0,1-1.3,3.083l-14.826.141-2.949-1.026V26.519Zm-10.663-.615h8.657V40.151H40.829Zm2.378.416a1.6,1.6,0,1,0,1.6,1.6,1.6,1.6,0,0,0-1.6-1.6Zm0,1.9a.3.3,0,1,1,.3-.3.3.3,0,0,1-.3.3ZM56.537,6.359l-.566,2.8a.649.649,0,0,0,.956.694l2.488-1.4,2.488,1.4a.649.649,0,0,0,.956-.694l-.566-2.8,2.1-1.933A.649.649,0,0,0,64.031,3.3l-2.838-.326L60.005.378a.649.649,0,0,0-1.181,0l-1.188,2.6L54.8,3.3a.649.649,0,0,0-.365,1.123Zm1.612-2.134a.649.649,0,0,0,.516-.375l.749-1.64.749,1.64a.649.649,0,0,0,.516.375l1.791.206-1.328,1.22a.649.649,0,0,0-.2.607L61.3,8.025l-1.57-.886a.649.649,0,0,0-.638,0l-1.57.886.357-1.767a.649.649,0,0,0-.2-.607l-1.328-1.22Zm4.87,2.419a.649.649,0,0,0,.179.679l2.1,1.932-.567,2.8a.649.649,0,0,0,.956.694l2.488-1.4,2.488,1.4a.649.649,0,0,0,.956-.694l-.567-2.8,2.1-1.933A.649.649,0,0,0,72.795,6.2l-2.838-.327-1.187-2.6a.649.649,0,0,0-1.181,0L66.4,5.873,63.562,6.2a.649.649,0,0,0-.543.444Zm3.894.477a.649.649,0,0,0,.517-.375l.749-1.64.75,1.64a.649.649,0,0,0,.516.375l1.791.206L69.908,8.547a.649.649,0,0,0-.2.607l.357,1.767-1.57-.886a.649.649,0,0,0-.638,0l-1.57.886.357-1.767a.649.649,0,0,0-.2-.607L65.122,7.327ZM47.773,9.256l-.566,2.8a.649.649,0,0,0,.956.694l2.488-1.4,2.488,1.4a.649.649,0,0,0,.956-.694l-.567-2.8,2.1-1.933A.649.649,0,0,0,55.267,6.2l-2.838-.327-1.187-2.6a.649.649,0,0,0-1.181,0l-1.188,2.6L46.034,6.2a.649.649,0,0,0-.365,1.123Zm1.612-2.134a.649.649,0,0,0,.516-.375l.749-1.64.749,1.64a.649.649,0,0,0,.516.375l1.791.206L52.379,8.547a.649.649,0,0,0-.2.607l.357,1.767-1.57-.886a.649.649,0,0,0-.638,0l-1.57.886.357-1.767a.649.649,0,0,0-.2-.607L47.594,7.327Z" transform="translate(285.584 2562.926)" fill="#4061ac"></path>
  </g>
</svg>
