<svg xmlns="http://www.w3.org/2000/svg" xmlns:xlink="http://www.w3.org/1999/xlink" width="254.486" height="50.457" viewBox="0 0 254.486 50.457">
  <defs>
    <linearGradient id="linear-gradient" y1="0.5" x2="1.08" y2="0.5" gradientUnits="objectBoundingBox">
      <stop offset="0" stop-color="#fff"/>
      <stop offset="0.645" stop-color="#fff" stop-opacity="0"/>
      <stop offset="1" stop-color="#fff" stop-opacity="0"/>
    </linearGradient>
  </defs>
  <g id="Group_18942" data-name="Group 18942" transform="translate(-312 -2687)">
    <g id="Group_18941" data-name="Group 18941">
      <g id="Group_9553" data-name="Group 9553" transform="translate(-154 2338.742)">
        <g id="Group_9547" data-name="Group 9547" transform="translate(658.728 380.001)">
          <path id="Path_73" data-name="Path 73" d="M326.651,84.852a2.67,2.67,0,0,1,.774-2.041,3.218,3.218,0,0,1,2.294-.732,2.7,2.7,0,0,1,2.943,1.9.262.262,0,0,1-.169.366l-.366.127a.251.251,0,0,1-.352-.169,1.9,1.9,0,0,0-.71-1.05,2.427,2.427,0,0,0-1.373-.329,2.208,2.208,0,0,0-1.562.5,1.82,1.82,0,0,0-.536,1.4v2.154a1.833,1.833,0,0,0,.542,1.408,2.2,2.2,0,0,0,1.556.507,1.967,1.967,0,0,0,2.1-1.45.275.275,0,0,1,.366-.169l.366.113a.252.252,0,0,1,.169.366,2.831,2.831,0,0,1-3.028,1.972,3.133,3.133,0,0,1-2.245-.731,2.689,2.689,0,0,1-.767-2.042Z" transform="translate(-326.646 -79.102)" fill="#fff"/>
          <path id="Path_74" data-name="Path 74" d="M337.361,84.658a2.345,2.345,0,0,1,.824-1.9,3.41,3.41,0,0,1,2.26-.689,3.462,3.462,0,0,1,2.28.689,2.336,2.336,0,0,1,.831,1.9v2.478a2.316,2.316,0,0,1-.831,1.893,3.487,3.487,0,0,1-2.28.683,3.407,3.407,0,0,1-2.26-.689,2.326,2.326,0,0,1-.824-1.887Zm5.238,0a1.538,1.538,0,0,0-.578-1.267,2.444,2.444,0,0,0-1.576-.465,2.419,2.419,0,0,0-1.563.465,1.539,1.539,0,0,0-.577,1.267v2.478a1.511,1.511,0,0,0,.583,1.258,2.906,2.906,0,0,0,3.133,0,1.517,1.517,0,0,0,.577-1.258Z" transform="translate(-330.091 -79.091)" fill="#fff"/>
          <path id="Path_75" data-name="Path 75" d="M349.376,82.555a6.848,6.848,0,0,1,2.618-.479q2.8,0,2.8,2.759v4.436a.224.224,0,0,1-.254.253h-.436a.21.21,0,0,1-.254-.253V84.863a1.717,1.717,0,0,0-1.971-1.914,5.566,5.566,0,0,0-1.872.309.355.355,0,0,0-.21.352v5.66a.223.223,0,0,1-.253.253H349.1a.223.223,0,0,1-.253-.253V83.329a.864.864,0,0,1,.105-.479A.993.993,0,0,1,349.376,82.555Z" transform="translate(-333.786 -79.099)" fill="#fff"/>
          <path id="Path_76" data-name="Path 76" d="M359.781,84.192a1.866,1.866,0,0,1,.711-1.549,3.254,3.254,0,0,1,2.062-.563,2.8,2.8,0,0,1,2.873,1.534.228.228,0,0,1-.127.366l-.352.155a.249.249,0,0,1-.352-.128,1.7,1.7,0,0,0-.7-.8,2.681,2.681,0,0,0-1.33-.268q-1.845,0-1.845,1.225a1.258,1.258,0,0,0,.113.556,1.028,1.028,0,0,0,.267.359,1.268,1.268,0,0,0,.472.212,4.787,4.787,0,0,0,.563.12c.164.024.4.049.711.078a7.4,7.4,0,0,1,1.084.161,3.565,3.565,0,0,1,.846.324,1.437,1.437,0,0,1,.612.613,2.133,2.133,0,0,1,.2.985,1.9,1.9,0,0,1-.731,1.584,3.462,3.462,0,0,1-2.154.569,2.891,2.891,0,0,1-3.041-1.746.218.218,0,0,1,.155-.338l.366-.126a.258.258,0,0,1,.338.155,2.034,2.034,0,0,0,2.154,1.225q1.985,0,1.986-1.281a.95.95,0,0,0-.486-.936,4.773,4.773,0,0,0-1.555-.359q-.537-.055-.853-.105a4.84,4.84,0,0,1-.746-.19,1.884,1.884,0,0,1-.669-.352,1.7,1.7,0,0,1-.409-.584A2.153,2.153,0,0,1,359.781,84.192Z" transform="translate(-337.25 -79.103)" fill="#fff"/>
          <path id="Path_77" data-name="Path 77" d="M376.165,82.377a.224.224,0,0,1,.253.253v5.941a.864.864,0,0,1-.105.479,1,1,0,0,1-.429.3,6.865,6.865,0,0,1-2.633.465,2.446,2.446,0,0,1-2.788-2.745V82.63a.21.21,0,0,1,.254-.253h.436a.271.271,0,0,1,.2.056.3.3,0,0,1,.049.2v4.392a1.724,1.724,0,0,0,1.971,1.929,4.907,4.907,0,0,0,1.83-.31.4.4,0,0,0,.254-.394V82.63a.223.223,0,0,1,.253-.253Z" transform="translate(-340.724 -79.189)" fill="#fff"/>
          <path id="Path_78" data-name="Path 78" d="M382.961,87.853a.3.3,0,0,1-.049.2.27.27,0,0,1-.2.056h-.437a.21.21,0,0,1-.253-.253V77.942a.21.21,0,0,1,.253-.254h.437a.27.27,0,0,1,.2.056.3.3,0,0,1,.049.2Z" transform="translate(-344.437 -77.682)" fill="#fff"/>
          <path id="Path_79" data-name="Path 79" d="M387.254,79.895a.272.272,0,0,1,.2.056.306.306,0,0,1,.049.2v1.436h2.042a.224.224,0,0,1,.253.253V82.2a.224.224,0,0,1-.253.254h-2.042v3.66a2.25,2.25,0,0,0,.415,1.612,2.4,2.4,0,0,0,1.6.388q.253,0,.253.267v.381a.21.21,0,0,1-.253.253,3.268,3.268,0,0,1-2.3-.584,3.1,3.1,0,0,1-.655-2.288V82.458h-1.338a.225.225,0,0,1-.254-.254v-.366a.224.224,0,0,1,.254-.253h1.338V80.149a.224.224,0,0,1,.253-.254Z" transform="translate(-345.393 -78.397)" fill="#fff"/>
          <path id="Path_80" data-name="Path 80" d="M394.142,78.543a.429.429,0,0,1,.521.521v.1a.428.428,0,0,1-.521.521h-.084a.429.429,0,0,1-.521-.521v-.1a.429.429,0,0,1,.521-.521Zm.182,2.59a.224.224,0,0,1,.254.253v6.73a.224.224,0,0,1-.254.253h-.449a.224.224,0,0,1-.253-.253v-6.73a.224.224,0,0,1,.253-.253Z" transform="translate(-348.127 -77.946)" fill="#fff"/>
          <path id="Path_81" data-name="Path 81" d="M398.336,82.555a6.848,6.848,0,0,1,2.618-.479q2.8,0,2.8,2.759v4.436a.224.224,0,0,1-.254.253h-.436a.21.21,0,0,1-.254-.253V84.863a1.717,1.717,0,0,0-1.971-1.914,5.567,5.567,0,0,0-1.872.309.355.355,0,0,0-.21.352v5.66a.224.224,0,0,1-.253.253h-.449a.223.223,0,0,1-.253-.253V83.329a.863.863,0,0,1,.105-.479A.994.994,0,0,1,398.336,82.555Z" transform="translate(-349.52 -79.099)" fill="#fff"/>
          <path id="Path_82" data-name="Path 82" d="M408.878,84.963q0-2.886,3.041-2.886a6.157,6.157,0,0,1,2.379.422,1.166,1.166,0,0,1,.436.288.87.87,0,0,1,.1.486V89.96q0,3.042-2.971,3.041a2.909,2.909,0,0,1-2.788-1.507.256.256,0,0,1,.1-.422l.309-.155a.275.275,0,0,1,.409.1,2.046,2.046,0,0,0,1.942,1.126q2.056,0,2.056-2.14V89.13a6.385,6.385,0,0,1-2.225.422,2.444,2.444,0,0,1-2.786-2.745Zm4.744-1.746a4.713,4.713,0,0,0-1.647-.267q-2.14,0-2.14,2.027v1.8a1.7,1.7,0,0,0,1.942,1.9,5.979,5.979,0,0,0,2.113-.409V83.582a.439.439,0,0,0-.043-.232.5.5,0,0,0-.225-.134Z" transform="translate(-353.079 -79.099)" fill="#fff"/>
        </g>
        <path id="Path_83" data-name="Path 83" d="M69.716,30.918v4.058h-11.5v23H54.159v-23H42.66V30.918Z" transform="translate(423.34 317.34)" fill="#fff"/>
        <path id="Path_84" data-name="Path 84" d="M113.255,34.976H92.51v7.441h16.684v4.058H92.51v7.442h20.744v4.059h-24.8V30.918h24.8Z" transform="translate(408.625 317.34)" fill="#fff"/>
        <path id="Path_85" data-name="Path 85" d="M137.305,34.976a.835.835,0,0,0-.827.827V53.09a.835.835,0,0,0,.827.826h22.1v4.059h-22.1a4.876,4.876,0,0,1-4.885-4.886V35.8a4.876,4.876,0,0,1,4.885-4.886h22.1v4.058Z" transform="translate(394.494 317.34)" fill="#fff"/>
        <path id="Path_86" data-name="Path 86" d="M207.347,30.918V57.975h-4.059v-11.5H183.709v11.5H179.65V30.918h4.059v11.5h19.578v-11.5Z" transform="translate(379.318 317.34)" fill="#fff"/>
        <path id="Path_87" data-name="Path 87" d="M251.382,30.918h4.059V57.975h-4.81L232.442,36.33V57.975h-4.058V30.918h4.81l18.188,21.646Z" transform="translate(363.655 317.34)" fill="#fff"/>
        <path id="Path_88" data-name="Path 88" d="M298.177,30.918a4.876,4.876,0,0,1,4.885,4.886V53.09a4.876,4.876,0,0,1-4.885,4.886H280.89A4.876,4.876,0,0,1,276,53.09V35.8a4.876,4.876,0,0,1,4.885-4.886Zm0,23A.834.834,0,0,0,299,53.09V35.8a.834.834,0,0,0-.826-.827H280.89a.835.835,0,0,0-.827.827V53.09a.834.834,0,0,0,.827.826Z" transform="translate(348.35 317.34)" fill="#fff"/>
        <g id="Group_9552" data-name="Group 9552" transform="translate(596.572 370.524)">
          <path id="Path_90" data-name="Path 90" d="M354.906,65.482c-23.64-4.745-52.3.983-73.367,7.129a333.519,333.519,0,0,0-46.473,17.475l.89,1.832c.754-.366,71.381-34.224,118.951-24.364Z" transform="translate(-235.065 -63.728)" fill="url(#linear-gradient)"/>
        </g>
        <path id="Path_92" data-name="Path 92" d="M351.042,30.918H355.7L340.106,57.975h-4.06L320.415,30.918h4.7L338.077,53.39Z" transform="translate(334.079 317.34)" fill="#fff"/>
        <path id="Path_89" data-name="Path 89" d="M399.954,30.918a4.876,4.876,0,0,1,4.885,4.886V57.975h-4.058V48.5H381.842v9.47h-4.059V35.8a4.876,4.876,0,0,1,4.885-4.886Zm.827,13.528V35.8a.834.834,0,0,0-.827-.827H382.668a.834.834,0,0,0-.826.827v8.643Z" transform="translate(315.643 317.34)" fill="#fff"/>
      </g>
    </g>
  </g>
</svg>
