<?xml version="1.0" encoding="UTF-8"?>
<svg xmlns="http://www.w3.org/2000/svg" width="61" height="61" viewBox="0 0 61 61">
  <g id="Group_18935" data-name="Group 18935" transform="translate(-752 -2553)">
    <rect id="Rectangle_13" data-name="Rectangle 13" width="61" height="61" rx="10" transform="translate(752 2553)" fill="#fff"></rect>
    <g id="Solution" transform="translate(757.98 2558.932)">
      <path id="Path_484" data-name="Path 484" d="M41.033,16.1l-4.774-4.774a.751.751,0,0,0-1.276.423,3,3,0,1,1-3.4-3.4.751.751,0,0,0,.423-1.276L27.234,2.3a.751.751,0,0,0-1.061,0L22.026,6.441a4.5,4.5,0,1,0-5.515,5.514L12.37,16.1a.751.751,0,0,0,0,1.061l4.143,4.148a4.5,4.5,0,0,0-.546,8.515l-1.753,5.056a3.753,3.753,0,0,0,.129,3.308l2.635,6.23a.6.6,0,0,0,.034.07,2.292,2.292,0,0,1,.28,1.1v.721a.751.751,0,1,0,1.5,0v-.721a3.8,3.8,0,0,0-.45-1.79l-2.636-6.23a.675.675,0,0,0-.036-.075,2.279,2.279,0,0,1-.066-2.06l1.836-5.285c.079,0,.156.011.236.011a4.5,4.5,0,0,0,4.347-3.334L23.3,28.092V35.8a.751.751,0,0,0,1.5,0V25.289a2.252,2.252,0,0,1,4.5,0v9.091a6.793,6.793,0,0,0,.713,3.021l.275.551a5.274,5.274,0,0,1,0,4.7l-.751,1.5a2.263,2.263,0,0,0-.237,1.007v1.147a.751.751,0,1,0,1.5,0V45.161a.765.765,0,0,1,.075-.336l.751-1.5a6.783,6.783,0,0,0,0-6.042l-.275-.551a5.281,5.281,0,0,1-.516-1.723,5.239,5.239,0,0,0,3.718,1.541A2.252,2.252,0,0,0,36.809,34.3V30.019a4.5,4.5,0,0,0,.082-8.714l4.142-4.148a.751.751,0,0,0,0-1.06ZM34.557,35.048A3.758,3.758,0,0,1,30.8,31.295v-3.9l.573-.573a4.492,4.492,0,0,0,3.93,3.318V34.3A.751.751,0,0,1,34.557,35.048Zm.107-13.637a.751.751,0,0,0,.64,1.276,3,3,0,1,1-2.552,2.552.751.751,0,0,0-1.276-.64l-.672.673a3.753,3.753,0,0,0-7.507.017v.68l-1.376-1.376a.751.751,0,0,0-1.276.64,3,3,0,1,1-2.552-2.552.751.751,0,0,0,.64-1.276l-4.772-4.778,4.777-4.774a.751.751,0,0,0-.64-1.276,3,3,0,0,1-2.543-5.092,3.078,3.078,0,0,1,4.246,0,3,3,0,0,1,.847,2.543.751.751,0,0,0,1.276.64l4.781-4.776,3.364,3.364a4.5,4.5,0,1,0,6.005,6.005l3.364,3.364Z" transform="translate(-2.531)" fill="#4061ac"></path>
      <path id="Path_485" data-name="Path 485" d="M59.255,22.5h-4.5a.751.751,0,1,1,0-1.5h4.5a.751.751,0,1,1,0,1.5Z" transform="translate(-12.966 -4.718)" fill="#4061ac"></path>
      <path id="Path_486" data-name="Path 486" d="M53.67,10.253a.751.751,0,0,1-.375-1.4L57.2,6.6a.751.751,0,1,1,.751,1.3l-3.9,2.252a.745.745,0,0,1-.375.1Z" transform="translate(-12.697 -1.103)" fill="#4061ac"></path>
      <path id="Path_487" data-name="Path 487" d="M57.568,36.253a.745.745,0,0,1-.375-.1l-3.9-2.252a.751.751,0,1,1,.751-1.3l3.9,2.252a.751.751,0,0,1-.375,1.4Z" transform="translate(-12.695 -7.586)" fill="#4061ac"></path>
      <path id="Path_488" data-name="Path 488" d="M7.255,22.5h-4.5a.751.751,0,0,1,0-1.5h4.5a.751.751,0,1,1,0,1.5Z" transform="translate(0 -4.718)" fill="#4061ac"></path>
      <path id="Path_489" data-name="Path 489" d="M8.535,10.253a.745.745,0,0,1-.375-.1L4.256,7.9a.751.751,0,1,1,.751-1.3l3.9,2.252a.751.751,0,0,1-.375,1.4Z" transform="translate(-0.469 -1.103)" fill="#4061ac"></path>
      <path id="Path_490" data-name="Path 490" d="M4.637,36.253a.751.751,0,0,1-.375-1.4l3.9-2.252a.751.751,0,1,1,.751,1.3l-3.9,2.252a.745.745,0,0,1-.375.1Z" transform="translate(-0.47 -7.586)" fill="#4061ac"></path>
    </g>
  </g>
</svg>
