<?xml version="1.0" encoding="UTF-8"?>
<svg xmlns="http://www.w3.org/2000/svg" width="61" height="61" viewBox="0 0 61 61">
  <g id="Group_18936" data-name="Group 18936" transform="translate(-1192 -2553)">
    <rect id="Rectangle_14" data-name="Rectangle 14" width="61" height="61" rx="10" transform="translate(1192 2553)" fill="#fff"></rect>
    <g id="integration" transform="translate(1200.191 2560.734)">
      <g id="Group_11" data-name="Group 11" transform="translate(9.032 9.239)">
        <path id="Path_491" data-name="Path 491" d="M118.814,127.669h-3.588a2.87,2.87,0,0,1-2.754-2.016l-.461-1.564a1.118,1.118,0,0,0-1.083-.769,1.208,1.208,0,0,0-.282.034l-1.639.4a2.939,2.939,0,0,1-.692.083,2.889,2.889,0,0,1-2.474-1.382l-1.792-2.986a2.735,2.735,0,0,1,.428-3.36l1.177-1.168a1,1,0,0,0,0-1.433l-1.176-1.165a2.736,2.736,0,0,1-.427-3.362l1.792-2.985a2.888,2.888,0,0,1,2.474-1.382,2.941,2.941,0,0,1,.692.083l1.639.4a1.206,1.206,0,0,0,.283.034,1.117,1.117,0,0,0,1.082-.77l.461-1.562a2.87,2.87,0,0,1,2.755-2.018h3.588a2.871,2.871,0,0,1,2.753,2.016l.462,1.564a1.115,1.115,0,0,0,1.081.769,1.2,1.2,0,0,0,.282-.034l1.64-.4a2.943,2.943,0,0,1,.691-.082,2.891,2.891,0,0,1,2.474,1.382l1.793,2.987a2.737,2.737,0,0,1-.429,3.36l-1.177,1.166a.994.994,0,0,0,0,1.432l1.177,1.168a2.737,2.737,0,0,1,.428,3.361L128.2,122.45a2.891,2.891,0,0,1-2.474,1.382h0a2.944,2.944,0,0,1-.692-.083l-1.64-.4a1.2,1.2,0,0,0-.281-.033,1.117,1.117,0,0,0-1.082.769l-.462,1.563A2.872,2.872,0,0,1,118.814,127.669Zm-7.886-6.092a2.87,2.87,0,0,1,2.754,2.018l.461,1.564a1.118,1.118,0,0,0,1.083.768h3.588a1.119,1.119,0,0,0,1.083-.77l.461-1.561a2.869,2.869,0,0,1,2.754-2.019,2.951,2.951,0,0,1,.69.082l1.641.4a1.2,1.2,0,0,0,.282.034,1.14,1.14,0,0,0,.98-.536l1.793-2.987a.987.987,0,0,0-.162-1.226l-1.176-1.168a2.737,2.737,0,0,1,0-3.907l1.177-1.166a.986.986,0,0,0,.162-1.225l-1.793-2.988a1.14,1.14,0,0,0-.98-.536,1.2,1.2,0,0,0-.282.034l-1.64.4a2.949,2.949,0,0,1-.691.083,2.867,2.867,0,0,1-2.753-2.018l-.462-1.563a1.118,1.118,0,0,0-1.082-.768h-3.588a1.118,1.118,0,0,0-1.083.769l-.461,1.562a2.87,2.87,0,0,1-2.753,2.018,2.951,2.951,0,0,1-.692-.082l-1.64-.4a1.2,1.2,0,0,0-.282-.034,1.138,1.138,0,0,0-.979.535l-1.793,2.988a.985.985,0,0,0,.161,1.226l1.177,1.165a2.738,2.738,0,0,1,0,3.908L105.7,117.34a.985.985,0,0,0-.162,1.224l1.794,2.989a1.138,1.138,0,0,0,.979.536,1.2,1.2,0,0,0,.281-.034l1.64-.4A2.956,2.956,0,0,1,110.927,121.576Z" transform="translate(-103.657 -100.771)" fill="#4061ac"></path>
        <path id="Path_492" data-name="Path 492" d="M186.711,191.527a6.709,6.709,0,0,1,0-13.419,6.682,6.682,0,0,1,5.216,2.542.871.871,0,0,1-1.359,1.092,4.948,4.948,0,0,0-3.857-1.891,4.967,4.967,0,0,0,0,9.933,4.945,4.945,0,0,0,3.885-1.927.871.871,0,0,1,1.368,1.08A6.678,6.678,0,0,1,186.711,191.527Z" transform="translate(-173.349 -171.369)" fill="#4061ac"></path>
      </g>
      <path id="Path_493" data-name="Path 493" d="M221.456,235.2a.871.871,0,0,1-.616-.255l-1.557-1.557a.871.871,0,0,1,1.232-1.232l.94.94,2.5-2.5a.871.871,0,0,1,1.232,1.232l-3.113,3.113A.871.871,0,0,1,221.456,235.2Z" transform="translate(-199.942 -209.811)" fill="#4061ac"></path>
      <path id="Path_494" data-name="Path 494" d="M266.2,445.856a.867.867,0,0,1-.479-.144l-2.707-1.784a.871.871,0,0,1-.246-1.211l1.823-2.739a.871.871,0,0,1,1.451.966l-1.338,2.011,1.976,1.3a.871.871,0,0,1-.48,1.6Z" transform="translate(-239.736 -400.826)" fill="#4061ac"></path>
      <path id="Path_495" data-name="Path 495" d="M191.449,6.706a.872.872,0,0,1-.709-1.377l1.39-1.951-1.9-1.282A.871.871,0,0,1,191.2.65l2.646,1.782a.871.871,0,0,1,.223,1.229l-1.91,2.68A.87.87,0,0,1,191.449,6.706Z" transform="translate(-173.299)" fill="#4061ac"></path>
      <path id="Path_496" data-name="Path 496" d="M24.713,40.361a.872.872,0,0,1-.864-.993A20.575,20.575,0,0,1,41.276,21.941a.871.871,0,1,1,.243,1.726A18.825,18.825,0,0,0,25.575,39.611.872.872,0,0,1,24.713,40.361Z" transform="translate(-21.764 -19.564)" fill="#4061ac"></path>
      <path id="Path_497" data-name="Path 497" d="M296.25,40.361a.872.872,0,0,1-.862-.75,18.825,18.825,0,0,0-15.944-15.944.871.871,0,0,1,.243-1.726,20.575,20.575,0,0,1,17.427,17.427.872.872,0,0,1-.864.993Z" transform="translate(-254.409 -19.564)" fill="#4061ac"></path>
      <path id="Path_498" data-name="Path 498" d="M41.4,295.214a.875.875,0,0,1-.123-.009,20.576,20.576,0,0,1-17.427-17.427.871.871,0,1,1,1.726-.243A18.825,18.825,0,0,0,41.519,293.48a.871.871,0,0,1-.12,1.734Z" transform="translate(-21.764 -252.208)" fill="#4061ac"></path>
      <path id="Path_499" data-name="Path 499" d="M279.565,295.215a.871.871,0,0,1-.12-1.734,18.824,18.824,0,0,0,15.944-15.944.871.871,0,0,1,1.726.243,20.575,20.575,0,0,1-17.427,17.427A.884.884,0,0,1,279.565,295.215Z" transform="translate(-254.409 -252.209)" fill="#4061ac"></path>
      <path id="Path_500" data-name="Path 500" d="M.87,265.564A.872.872,0,0,1,.154,264.2l1.871-2.707a.871.871,0,0,1,1.2-.23l2.739,1.823A.871.871,0,0,1,5,264.534l-2.027-1.349-1.385,2A.87.87,0,0,1,.87,265.564Z" transform="translate(0 -237.903)" fill="#4061ac"></path>
      <path id="Path_501" data-name="Path 501" d="M443.435,192.725a.871.871,0,0,1-.495-.154l-2.767-1.91a.871.871,0,0,1,.99-1.434l2.042,1.409,1.289-1.915a.871.871,0,0,1,1.446.974l-1.782,2.646a.872.872,0,0,1-.723.385Z" transform="translate(-401.472 -171.467)" fill="#4061ac"></path>
      <path id="Line_1" data-name="Line 1" transform="translate(28.233 22.687)" fill="#4061ac"></path>
    </g>
  </g>
</svg>
