<svg xmlns="http://www.w3.org/2000/svg" width="15.52" height="19.752" viewBox="0 0 15.52 19.752">
  <g id="Group_18946" data-name="Group 18946" transform="translate(-1250.246 -4180.23)">
    <g id="Group_12723" data-name="Group 12723" transform="translate(1250.246 4180.23)">
      <g id="Group_12716" data-name="Group 12716" transform="translate(2.055)">
        <path id="Path_11216" data-name="Path 11216" d="M788.768-184.041v10.665l4.321-4.321,1.012-1.012-5.333-5.332" transform="translate(-782.691 184.041)" fill="#fff"/>
        <path id="Path_11217" data-name="Path 11217" d="M772.952-184.042l-5.333,5.333,1.012,1.012,4.321,4.321v-10.665" transform="translate(-767.619 184.042)" fill="#fff"/>
      </g>
      <g id="Group_12717" data-name="Group 12717" transform="translate(0 6.578)">
        <path id="Path_11218" data-name="Path 11218" d="M760.467-156.537h6.862l-4.613-4.614Z" transform="translate(-760.467 161.151)" fill="#fff"/>
      </g>
      <g id="Group_12718" data-name="Group 12718" transform="translate(8.658 6.578)">
        <path id="Path_11219" data-name="Path 11219" d="M790.6-156.536h6.862l-2.248-4.613Z" transform="translate(-790.6 161.15)" fill="#fff"/>
      </g>
      <g id="Group_12719" data-name="Group 12719" transform="translate(8.658 11.935)">
        <path id="Path_11220" data-name="Path 11220" d="M790.6-142.5l5.083,5.083,1.736-5.083Z" transform="translate(-790.598 142.505)" fill="#fff"/>
      </g>
      <g id="Group_12720" data-name="Group 12720" transform="translate(8.132 12.461)">
        <path id="Path_11221" data-name="Path 11221" d="M788.768-133.383l5.052-2.239-5.052-5.052Z" transform="translate(-788.768 140.674)" fill="#fff"/>
      </g>
      <g id="Group_12721" data-name="Group 12721" transform="translate(2.336 12.461)">
        <path id="Path_11222" data-name="Path 11222" d="M768.6-135.623h0l5.052,2.238v-7.291Z" transform="translate(-768.598 140.674)" fill="#fff"/>
      </g>
      <g id="Group_12722" data-name="Group 12722" transform="translate(0.042 11.935)">
        <path id="Path_11223" data-name="Path 11223" d="M760.615-142.5l1.736,5.083,5.083-5.083Z" transform="translate(-760.615 142.505)" fill="#fff"/>
      </g>
    </g>
  </g>
</svg>
