<svg xmlns="http://www.w3.org/2000/svg" width="21.015" height="20.089" viewBox="0 0 21.015 20.089">
  <g id="Group_18941" data-name="Group 18941" transform="translate(-322 -5071.168)">
    <g id="Group_18940" data-name="Group 18940" transform="translate(10 27)">
      <g id="Group_18319" data-name="Group 18319" transform="translate(312 5044.168)">
        <path id="Path_8668" data-name="Path 8668" d="M163.458,555.4a2.348,2.348,0,1,0-.058,4.684h.029a2.349,2.349,0,1,0,.029-4.684Z" transform="translate(-160.91 -555.404)" fill="#8b8b8b"/>
        <path id="Path_8669" data-name="Path 8669" d="M160.983,557.209h4.506v13.556h-4.506Z" transform="translate(-160.719 -550.676)" fill="#8b8b8b"/>
        <path id="Path_8670" data-name="Path 8670" d="M171.481,557.121a5.641,5.641,0,0,0-4.058,2.284v-1.966h-4.506V571h4.5v-7.569a3.163,3.163,0,0,1,.148-1.1,2.465,2.465,0,0,1,2.313-1.647c1.632,0,2.284,1.242,2.284,3.066V571h4.5v-7.771C176.668,559.061,174.445,557.121,171.481,557.121Z" transform="translate(-155.652 -550.906)" fill="#8b8b8b"/>
      </g>
    </g>
  </g>
</svg>
