<svg xmlns="http://www.w3.org/2000/svg" width="21.681" height="14.906" viewBox="0 0 21.681 14.906">
  <g id="Group_18318" data-name="Group 18318" transform="translate(0 0.001)">
    <g id="Group_12120" data-name="Group 12120" transform="translate(14.372 2.749)">
      <g id="Group_12119" data-name="Group 12119">
        <path id="Path_8674" data-name="Path 8674" d="M88.353,562.081l7.309,4.621v-9.437Z" transform="translate(-88.353 -557.265)" fill="#002c90"/>
      </g>
    </g>
    <g id="Group_12122" data-name="Group 12122" transform="translate(0 2.749)">
      <g id="Group_12121" data-name="Group 12121">
        <path id="Path_8675" data-name="Path 8675" d="M83.649,557.265V566.7l7.309-4.621Z" transform="translate(-83.649 -557.265)" fill="#002c90"/>
      </g>
    </g>
    <g id="Group_12124" data-name="Group 12124" transform="translate(0.041 -0.001)">
      <g id="Group_12123" data-name="Group 12123">
        <path id="Path_8676" data-name="Path 8676" d="M103.948,556.365H84.976a1.338,1.338,0,0,0-1.314,1.155l10.8,7.116,10.8-7.116A1.338,1.338,0,0,0,103.948,556.365Z" transform="translate(-83.662 -556.365)" fill="#002c90"/>
      </g>
    </g>
    <g id="Group_12126" data-name="Group 12126" transform="translate(0.044 8.383)">
      <g id="Group_12125" data-name="Group 12125">
        <path id="Path_8677" data-name="Path 8677" d="M96.751,559.109l-1.919,1.265a.689.689,0,0,1-.373.11.681.681,0,0,1-.373-.11l-1.919-1.265-8.505,5.38a1.334,1.334,0,0,0,1.311,1.143h18.972a1.334,1.334,0,0,0,1.311-1.143Z" transform="translate(-83.663 -559.109)" fill="#002c90"/>
      </g>
    </g>
  </g>
</svg>
