<svg xmlns="http://www.w3.org/2000/svg" width="21.682" height="21.728" viewBox="0 0 21.682 21.728">
  <g id="Group_12128" data-name="Group 12128" transform="translate(0)">
    <path id="Path_8678" data-name="Path 8678" d="M21.652,15.946,18.62,12.914a2.017,2.017,0,0,0-3.357.758,2.063,2.063,0,0,1-2.382,1.3A9.35,9.35,0,0,1,7.25,9.34a1.963,1.963,0,0,1,1.3-2.382A2.017,2.017,0,0,0,9.307,3.6L6.275.569a2.163,2.163,0,0,0-2.924,0L1.294,2.626c-2.057,2.166.217,7.905,5.306,13s10.829,7.472,12.995,5.306l2.057-2.058A2.163,2.163,0,0,0,21.652,15.946Z" transform="translate(-0.539 0)" fill="#002c90"/>
  </g>
</svg>
