<svg xmlns="http://www.w3.org/2000/svg" width="24.139" height="19.614" viewBox="0 0 24.139 19.614">
  <g id="Group_12117" data-name="Group 12117" transform="translate(0 0)">
    <path id="Path_8673" data-name="Path 8673" d="M265.172,557.661a10.378,10.378,0,0,1-2.85.784,4.933,4.933,0,0,0,2.176-2.736,9.9,9.9,0,0,1-3.14,1.2,4.947,4.947,0,0,0-8.56,3.382,5.01,5.01,0,0,0,.118,1.129,14,14,0,0,1-10.2-5.178,4.953,4.953,0,0,0,1.52,6.615,4.874,4.874,0,0,1-2.235-.608v.052a4.971,4.971,0,0,0,3.966,4.864,4.946,4.946,0,0,1-1.3.162,4.418,4.418,0,0,1-.936-.083,4.988,4.988,0,0,0,4.622,3.444,9.923,9.923,0,0,1-6.135,2.111,9.594,9.594,0,0,1-1.185-.066,14.084,14.084,0,0,0,21.676-11.863c0-.218-.007-.428-.017-.639A9.918,9.918,0,0,0,265.172,557.661Z" transform="translate(-241.033 -555.34)" fill="#8b8b8b"/>
  </g>
</svg>
