<svg xmlns="http://www.w3.org/2000/svg" width="20.089" height="20.088" viewBox="0 0 20.089 20.088">
  <g id="Group_18939" data-name="Group 18939" transform="translate(-356.894 -5044.168)">
    <g id="Group_18320" data-name="Group 18320" transform="translate(356.895 5044.168)">
      <path id="Path_8671" data-name="Path 8671" d="M215.462,555.243h-9.214a5.445,5.445,0,0,0-5.437,5.44v9.211a5.442,5.442,0,0,0,5.437,5.437h9.214a5.442,5.442,0,0,0,5.437-5.437v-9.211A5.445,5.445,0,0,0,215.462,555.243Zm-4.609,15.538a5.492,5.492,0,1,1,5.5-5.492A5.5,5.5,0,0,1,210.853,570.781Zm5.625-9.69a1.622,1.622,0,1,1,1.625-1.622A1.625,1.625,0,0,1,216.478,561.091Z" transform="translate(-200.811 -555.243)" fill="#8b8b8b"/>
      <path id="Path_8672" data-name="Path 8672" d="M205.7,557.373a2.758,2.758,0,1,0,2.761,2.758A2.761,2.761,0,0,0,205.7,557.373Z" transform="translate(-195.655 -550.085)" fill="#8b8b8b"/>
    </g>
  </g>
</svg>
